<?xml version="1.0" ?><svg height="32" id="svg6485" version="1.1" viewBox="0 0 32 32" width="32" xmlns="http://www.w3.org/2000/svg" xmlns:cc="http://creativecommons.org/ns#" xmlns:dc="http://purl.org/dc/elements/1.1/" xmlns:inkscape="http://www.inkscape.org/namespaces/inkscape" xmlns:rdf="http://www.w3.org/1999/02/22-rdf-syntax-ns#" xmlns:sodipodi="http://sodipodi.sourceforge.net/DTD/sodipodi-0.dtd" xmlns:svg="http://www.w3.org/2000/svg" xmlns:xlink="http://www.w3.org/1999/xlink"><defs id="defs6487"><linearGradient id="linearGradient4819"><stop id="stop4821" offset="0" style="stop-color:#000092;stop-opacity:1"/><stop id="stop4823" offset="1" style="stop-color:#ff00f3;stop-opacity:1"/></linearGradient><linearGradient gradientUnits="userSpaceOnUse" id="linearGradient4825" x1="1.4882812" x2="30.511719" xlink:href="#linearGradient4819" y1="16.000976" y2="16.000976"/></defs><g id="layer1" transform="translate(0,-1020.3622)"><text id="text4366" style="font-style:normal;font-weight:normal;font-size:11.25px;line-height:125%;font-family:Sans;letter-spacing:0px;word-spacing:0px;fill:#000000;fill-opacity:1;stroke:none;stroke-width:1px;stroke-linecap:butt;stroke-linejoin:miter;stroke-opacity:1" x="12" xml:space="preserve" y="1036.3622"><tspan id="tspan4368" x="12" y="1036.3622"/></text><g id="text4981" style="font-style:normal;font-variant:normal;font-weight:normal;font-stretch:normal;font-size:12.37186241px;line-height:125%;font-family:'Roboto Condensed';-inkscape-font-specification:'Roboto Condensed, ';letter-spacing:0px;word-spacing:0px;fill:#000000;fill-opacity:1;stroke:none;stroke-width:1px;stroke-linecap:butt;stroke-linejoin:miter;stroke-opacity:1" transform="scale(1.1477838,0.87124422)"/><path d="M 1.4882812 6.5136719 L 1.4882812 7.0136719 L 1.4882812 20.697266 L 3.7265625 20.697266 L 3.7265625 23.09375 L 5.9707031 23.09375 L 5.9707031 25.488281 L 30.511719 25.488281 L 30.511719 11.304688 L 28.267578 11.304688 L 28.267578 8.9101562 L 26.029297 8.9101562 L 26.029297 6.5136719 L 1.4882812 6.5136719 z M 2.4882812 7.5136719 L 25.029297 7.5136719 L 25.029297 19.697266 L 2.4882812 19.697266 L 2.4882812 7.5136719 z M 6.0214844 8.9101562 L 5.9433594 9.3164062 C 5.7524594 10.313006 5.0260177 11.069672 4.1210938 11.263672 L 3.7265625 11.349609 L 3.7265625 15.863281 L 4.1210938 15.949219 C 5.0226448 16.144219 5.7434608 16.897925 5.9355469 17.890625 L 6.015625 18.296875 L 6.4277344 18.296875 C 8.4188869 18.296875 11.359394 18.298382 13.720703 18.296875 C 13.726727 18.2969 13.732252 18.298828 13.738281 18.298828 C 13.744311 18.298828 13.749836 18.2969 13.755859 18.296875 C 16.132576 18.295374 17.933125 18.290873 21.087891 18.296875 L 21.501953 18.296875 L 21.580078 17.890625 C 21.772067 16.898025 22.493205 16.144519 23.394531 15.949219 L 23.789062 15.863281 L 23.789062 11.349609 L 23.394531 11.263672 C 22.489298 11.069972 21.763394 10.313106 21.572266 9.3164062 L 21.496094 8.9101562 L 21.082031 8.9101562 L 19.634766 8.9101562 C 14.751986 8.9103562 11.31619 8.9103562 6.4335938 8.9101562 L 6.0214844 8.9101562 z M 6.71875 9.9101562 C 8.2930749 9.910223 9.6450651 9.9101341 11.029297 9.9101562 C 9.9805792 10.773058 9.2968745 12.106867 9.296875 13.605469 C 9.2968745 15.103912 9.9807709 16.4345 11.029297 17.296875 C 9.7361905 17.297998 7.8948266 17.296752 6.7128906 17.296875 C 6.3837193 16.304275 5.6768154 15.553966 4.7265625 15.197266 L 4.7265625 12.017578 C 5.6806234 11.661378 6.3895861 10.906756 6.71875 9.9101562 z M 13.738281 9.9101562 C 15.628073 9.9101562 17.181641 11.542869 17.181641 13.605469 C 17.181641 15.661511 15.6375 17.286551 13.755859 17.296875 C 13.744426 17.296882 13.732124 17.296868 13.720703 17.296875 C 11.839076 17.286551 10.296874 15.661511 10.296875 13.605469 C 10.296874 11.542869 11.84849 9.9101562 13.738281 9.9101562 z M 16.447266 9.9101562 C 17.500943 9.9101313 18.455785 9.9102056 19.634766 9.9101562 L 20.796875 9.9101562 C 21.125813 10.906456 21.835041 11.661178 22.789062 12.017578 L 22.789062 15.197266 C 21.839187 15.554166 21.131808 16.304275 20.802734 17.296875 C 18.950911 17.293475 18.005103 17.297087 16.447266 17.296875 C 17.496565 16.434513 18.181641 15.104094 18.181641 13.605469 C 18.181641 12.106685 17.496755 10.773045 16.447266 9.9101562 z M 26.029297 9.9101562 L 27.267578 9.9101562 L 27.267578 22.09375 L 4.7265625 22.09375 L 4.7265625 20.697266 L 26.029297 20.697266 L 26.029297 9.9101562 z M 13.519531 10.708984 L 13.519531 11.220703 C 13.324524 11.244603 13.14796 11.292328 12.990234 11.361328 C 12.832507 11.430928 12.697783 11.520006 12.585938 11.628906 C 12.476962 11.737706 12.392261 11.865672 12.332031 12.013672 C 12.274671 12.161772 12.246094 12.325406 12.246094 12.503906 C 12.246094 12.697706 12.279743 12.867525 12.345703 13.015625 C 12.414529 13.163625 12.512491 13.295003 12.638672 13.408203 C 12.767721 13.521403 12.922848 13.620078 13.103516 13.705078 C 13.287051 13.787878 13.493237 13.860828 13.722656 13.923828 C 13.894721 13.980428 14.039711 14.038609 14.160156 14.099609 C 14.283467 14.160609 14.382461 14.226828 14.457031 14.298828 C 14.534463 14.370728 14.59058 14.44825 14.625 14.53125 C 14.65942 14.61395 14.677734 14.704734 14.677734 14.802734 C 14.677734 14.920234 14.656291 15.027047 14.613281 15.123047 C 14.570265 15.216747 14.506988 15.295281 14.423828 15.363281 C 14.343531 15.428781 14.24154 15.480578 14.121094 15.517578 C 14.003517 15.552578 13.868788 15.570312 13.716797 15.570312 C 13.607822 15.570312 13.499597 15.555344 13.390625 15.527344 C 13.281651 15.499044 13.18265 15.448953 13.09375 15.376953 C 13.004847 15.305153 12.933386 15.207838 12.878906 15.085938 C 12.824426 14.963938 12.796875 14.812053 12.796875 14.626953 L 12.041016 14.626953 C 12.041016 14.872953 12.07882 15.083366 12.15625 15.259766 C 12.233679 15.433966 12.337748 15.578059 12.466797 15.693359 C 12.598713 15.808859 12.748771 15.897984 12.917969 15.958984 C 13.087165 16.019884 13.260738 16.060078 13.441406 16.080078 L 13.441406 16.5 L 14.041016 16.5 L 14.041016 16.080078 C 14.256096 16.058378 14.44903 16.014219 14.621094 15.949219 C 14.793159 15.883919 14.940101 15.7963 15.060547 15.6875 C 15.180989 15.5786 15.273884 15.450834 15.339844 15.302734 C 15.405804 15.152534 15.4375 14.984075 15.4375 14.796875 C 15.4375 14.605375 15.40684 14.436916 15.34375 14.291016 C 15.280659 14.145116 15.187766 14.015297 15.064453 13.904297 C 14.94114 13.793397 14.78809 13.698234 14.607422 13.615234 C 14.426754 13.530334 14.219531 13.452766 13.984375 13.384766 C 13.80084 13.326066 13.645712 13.266078 13.519531 13.205078 C 13.396218 13.142078 13.29618 13.076812 13.21875 13.007812 C 13.141316 12.938112 13.085201 12.862297 13.050781 12.779297 C 13.019241 12.694397 13.003906 12.598641 13.003906 12.494141 C 13.003906 12.380841 13.019241 12.277594 13.050781 12.183594 C 13.085196 12.089994 13.135212 12.011313 13.201172 11.945312 C 13.269997 11.877612 13.354701 11.826063 13.455078 11.789062 C 13.55545 11.752062 13.674849 11.732422 13.8125 11.732422 C 13.944417 11.732422 14.062778 11.758594 14.166016 11.808594 C 14.269256 11.858594 14.355008 11.928578 14.423828 12.017578 C 14.492646 12.106878 14.543705 12.212084 14.578125 12.333984 C 14.615405 12.455984 14.634766 12.588475 14.634766 12.734375 L 15.386719 12.734375 C 15.386719 12.292475 15.275503 11.944153 15.054688 11.689453 C 14.836739 11.432853 14.528437 11.277656 14.126953 11.222656 L 14.126953 10.708984 L 13.519531 10.708984 z M 28.267578 12.304688 L 29.511719 12.304688 L 29.511719 24.488281 L 6.9707031 24.488281 L 6.9707031 23.09375 L 28.267578 23.09375 L 28.267578 12.304688 z " id="ellipse5456" style="color:#000000;font-style:normal;font-variant:normal;font-weight:normal;font-stretch:normal;font-size:medium;line-height:normal;font-family:sans-serif;text-indent:0;text-align:start;text-decoration:none;text-decoration-line:none;text-decoration-style:solid;text-decoration-color:#000000;letter-spacing:normal;word-spacing:normal;text-transform:none;direction:ltr;block-progression:tb;writing-mode:lr-tb;baseline-shift:baseline;text-anchor:start;white-space:normal;clip-rule:nonzero;display:inline;overflow:visible;visibility:visible;opacity:1;isolation:auto;mix-blend-mode:normal;color-interpolation:sRGB;color-interpolation-filters:linearRGB;solid-color:#000000;solid-opacity:1;fill:url(#linearGradient4825);fill-opacity:1;fill-rule:nonzero;stroke:none;stroke-width:1;stroke-linecap:round;stroke-linejoin:round;stroke-miterlimit:4;stroke-dasharray:none;stroke-dashoffset:0;stroke-opacity:1;color-rendering:auto;image-rendering:auto;shape-rendering:auto;text-rendering:auto;enable-background:accumulate" transform="translate(0,1020.3622)"/></g></svg>