<?xml version="1.0" encoding="UTF-8"?>
<svg version="1.1" viewBox="0 0 448 512" xmlns="http://www.w3.org/2000/svg">
 <path d="m366.08 182.94-70.766-69.265a40.495 39.636 0 0 0-28.634-11.609h-226.2c-22.365 0-40.495 17.745-40.495 39.636v290.66c0 21.89 18.13 39.636 40.495 39.636h296.96c22.365 0 40.495-17.745 40.495-39.636v-221.4a40.495 39.636 0 0 0-11.861-28.027zm-177.11 236.21c-29.819 0-53.993-23.661-53.993-52.848s24.174-52.848 53.993-52.848 53.993 23.661 53.993 52.848-24.174 52.848-53.993 52.848zm80.99-251.45v83.003c0 5.4721-4.5329 9.9091-10.124 9.9091h-195.73c-5.5908 0-10.124-4.4367-10.124-9.9091v-85.877c0-5.4721 4.5329-9.9091 10.124-9.9091h192.79c2.6853 0 5.2601 1.0437 7.1583 2.9024l2.9359 2.8736a10.12 9.9055 0 0 1 2.9654 7.0064z" stroke-width=".83464"/>
 <rect x="63.232" y="27.674" width="273.87" height="17.2" ry="8.6003" stroke-width=".92255"/>
 <rect transform="matrix(.74111 .67138 -.68352 .72994 0 0)" x="257.72" y="-203.57" width="155.78" height="16.43" ry="8.2151" stroke-width=".86301"/>
 <rect transform="rotate(90)" x="125.02" y="-443.6" width="231.44" height="15.561" ry="7.7808" stroke-width=".81762"/>
</svg>
